<?xml version="1.0" encoding="UTF-8" standalone="no"?><!-- Generator: Gravit.io --><svg xmlns="http://www.w3.org/2000/svg" xmlns:xlink="http://www.w3.org/1999/xlink" style="isolation:isolate" viewBox="0 0 150 35.754" width="150pt" height="35.754pt"><defs><clipPath id="_clipPath_N2X9EfySZ5l1HNMi3k8Mo1mwS5pKmzv8"><rect width="150" height="35.754"/></clipPath></defs><g clip-path="url(#_clipPath_N2X9EfySZ5l1HNMi3k8Mo1mwS5pKmzv8)"><g><g><path d=" M 0 31.571 C 0 32.151 0.469 32.621 1.05 32.621 L 38.613 32.621 L 38.613 30.521 L 1.05 30.521 C 0.469 30.521 0 30.991 0 31.571 Z " fill="rgb(163,32,53)"/></g><g><path d=" M 148.95 30.521 L 49.334 30.521 L 49.334 32.621 L 148.95 32.621 C 149.531 32.621 150 32.151 150 31.571 C 150 30.991 149.531 30.521 148.95 30.521 Z " fill="rgb(163,32,53)"/></g><g><path d=" M 77.534 8.784 L 70.316 8.784 L 70.316 18.116 C 70.316 20.431 71.234 21.546 73.263 21.541 L 77.534 21.541 L 77.534 25.264 L 72.565 25.264 C 68.776 25.264 66.586 22.739 66.586 18.739 L 66.586 0 L 70.316 0 L 70.316 5.054 L 77.534 5.054 L 77.534 8.784 Z " fill="rgb(163,32,53)"/></g><g><path d=" M 98.337 5.054 L 98.337 16.843 C 98.337 22.149 94.632 25.687 89.705 25.687 C 84.779 25.687 81.073 22.149 81.073 16.843 L 81.073 5.054 L 84.779 5.054 L 84.779 16.843 C 84.779 19.96 87.052 22.149 89.705 22.149 C 92.358 22.149 94.632 19.96 94.632 16.843 L 94.632 5.054 L 98.337 5.054 Z " fill="rgb(118,119,122)"/></g><g><path d=" M 123.969 4.596 C 121.156 4.596 118.745 5.754 117.19 7.731 C 115.636 5.754 113.225 4.596 110.411 4.596 C 105.485 4.596 101.78 8.134 101.78 13.439 L 101.78 25.229 L 105.485 25.229 L 105.485 13.439 C 105.485 10.323 107.759 8.134 110.411 8.134 C 113.064 8.134 115.337 10.323 115.337 13.439 L 115.337 25.229 L 115.338 25.229 L 119.043 25.229 L 119.043 13.439 L 119.043 13.437 C 119.044 10.322 121.318 8.134 123.969 8.134 C 126.622 8.134 128.896 10.323 128.896 13.439 L 128.896 25.229 L 132.602 25.229 L 132.602 13.439 C 132.602 8.134 128.896 4.596 123.969 4.596 Z " fill="rgb(118,119,122)"/></g><g><path d=" M 28.062 21.967 C 24.306 21.967 21.262 18.923 21.262 15.168 C 21.262 11.413 24.306 8.369 28.062 8.369 C 31.817 8.369 34.861 11.413 34.861 15.168 C 34.861 18.923 31.817 21.967 28.062 21.967 Z  M 38.605 15.168 C 38.605 9.345 33.884 4.624 28.062 4.624 C 22.239 4.624 17.518 9.345 17.518 15.168 C 17.518 20.991 22.239 25.711 28.062 25.711 C 30.654 25.711 33.024 24.772 34.861 23.22 L 34.861 25.281 L 38.605 25.281 C 38.605 25.281 38.605 15.183 38.605 15.168 Z " fill="rgb(118,119,122)"/></g><g><path d=" M 52.644 21.967 C 48.889 21.967 45.845 18.923 45.845 15.168 C 45.845 11.413 48.889 8.369 52.644 8.369 C 56.399 8.369 59.444 11.413 59.444 15.168 C 59.444 18.923 56.399 21.967 52.644 21.967 Z  M 52.644 4.624 C 46.821 4.624 42.101 9.345 42.101 15.168 C 42.101 15.183 42.1 35.754 42.1 35.754 L 45.845 35.754 L 45.845 23.22 C 47.681 24.772 50.052 25.711 52.644 25.711 C 58.467 25.711 63.188 20.991 63.188 15.168 C 63.188 9.345 58.467 4.624 52.644 4.624 Z " fill="rgb(118,119,122)"/></g></g></g></svg>